<?xml version="1.0" encoding="UTF-8" standalone="no"?>
<!DOCTYPE svg PUBLIC "-//W3C//DTD SVG 1.1//EN"
 "http://www.w3.org/Graphics/SVG/1.1/DTD/svg11.dtd">
<!-- Generated by graphviz version 2.42.4 (0)
 -->
<!-- Title: classes_homeassistant_components_accuweather Pages: 1 -->
<svg width="1985pt" height="439pt"
 viewBox="0.00 0.00 1984.50 439.00" xmlns="http://www.w3.org/2000/svg" xmlns:xlink="http://www.w3.org/1999/xlink">
<g id="graph0" class="graph" transform="scale(1 1) rotate(0) translate(4 435)">
<title>classes_homeassistant_components_accuweather</title>
<polygon fill="white" stroke="transparent" points="-4,4 -4,-435 1980.5,-435 1980.5,4 -4,4"/>
<!-- homeassistant.components.accuweather.coordinator.AccuWeatherDailyForecastDataUpdateCoordinator -->
<g id="node1" class="node">
<title>homeassistant.components.accuweather.coordinator.AccuWeatherDailyForecastDataUpdateCoordinator</title>
<polygon fill="none" stroke="black" points="0,-83 0,-182 380,-182 380,-83 0,-83"/>
<text text-anchor="start" x="8" y="-166.8" font-family="Times,serif" font-size="14.00">AccuWeatherDailyForecastDataUpdateCoordinator</text>
<polyline fill="none" stroke="black" points="0,-159 380,-159 "/>
<text text-anchor="start" x="144.5" y="-143.8" font-family="Times,serif" font-size="14.00">accuweather</text>
<text text-anchor="start" x="144.5" y="-128.8" font-family="Times,serif" font-size="14.00">device_info</text>
<text text-anchor="start" x="144.5" y="-113.8" font-family="Times,serif" font-size="14.00">location_key</text>
<polyline fill="none" stroke="black" points="0,-106 380,-106 "/>
<text text-anchor="start" x="187.5" y="-90.8" font-family="Times,serif" font-size="14.00"> </text>
</g>
<!-- homeassistant.components.accuweather.coordinator.AccuWeatherData -->
<g id="node2" class="node">
<title>homeassistant.components.accuweather.coordinator.AccuWeatherData</title>
<polygon fill="none" stroke="black" points="284.5,-331.5 284.5,-415.5 489.5,-415.5 489.5,-331.5 284.5,-331.5"/>
<text text-anchor="start" x="323" y="-400.3" font-family="Times,serif" font-size="14.00">AccuWeatherData</text>
<polyline fill="none" stroke="black" points="284.5,-392.5 489.5,-392.5 "/>
<text text-anchor="start" x="292.5" y="-377.3" font-family="Times,serif" font-size="14.00">coordinator_daily_forecast</text>
<text text-anchor="start" x="292.5" y="-362.3" font-family="Times,serif" font-size="14.00">coordinator_observation</text>
<polyline fill="none" stroke="black" points="284.5,-354.5 489.5,-354.5 "/>
<text text-anchor="start" x="384.5" y="-339.3" font-family="Times,serif" font-size="14.00"> </text>
</g>
<!-- homeassistant.components.accuweather.coordinator.AccuWeatherDailyForecastDataUpdateCoordinator&#45;&gt;homeassistant.components.accuweather.coordinator.AccuWeatherData -->
<g id="edge1" class="edge">
<title>homeassistant.components.accuweather.coordinator.AccuWeatherDailyForecastDataUpdateCoordinator&#45;&gt;homeassistant.components.accuweather.coordinator.AccuWeatherData</title>
<path fill="none" stroke="black" d="M201.13,-182.3C211.2,-217.66 228.98,-264.88 258,-298 266.55,-307.75 276.7,-316.55 287.49,-324.38"/>
<polygon fill="black" stroke="black" points="287.67,-324.5 294.88,-324.61 297.56,-331.3 290.35,-331.2 287.67,-324.5"/>
<text text-anchor="middle" x="352.5" y="-286.8" font-family="Times,serif" font-size="14.00" fill="green">coordinator_daily_forecast</text>
</g>
<!-- homeassistant.components.accuweather.weather.AccuWeatherEntity -->
<g id="node3" class="node">
<title>homeassistant.components.accuweather.weather.AccuWeatherEntity</title>
<polygon fill="none" stroke="black" points="785.5,-0.5 785.5,-264.5 1014.5,-264.5 1014.5,-0.5 785.5,-0.5"/>
<text text-anchor="start" x="830.5" y="-249.3" font-family="Times,serif" font-size="14.00">AccuWeatherEntity</text>
<polyline fill="none" stroke="black" points="785.5,-241.5 1014.5,-241.5 "/>
<text text-anchor="start" x="793.5" y="-226.3" font-family="Times,serif" font-size="14.00">cloud_coverage</text>
<text text-anchor="start" x="793.5" y="-211.3" font-family="Times,serif" font-size="14.00">condition</text>
<text text-anchor="start" x="793.5" y="-196.3" font-family="Times,serif" font-size="14.00">daily_coordinator</text>
<text text-anchor="start" x="793.5" y="-181.3" font-family="Times,serif" font-size="14.00">humidity</text>
<text text-anchor="start" x="793.5" y="-166.3" font-family="Times,serif" font-size="14.00">native_apparent_temperature</text>
<text text-anchor="start" x="793.5" y="-151.3" font-family="Times,serif" font-size="14.00">native_dew_point</text>
<text text-anchor="start" x="793.5" y="-136.3" font-family="Times,serif" font-size="14.00">native_pressure</text>
<text text-anchor="start" x="793.5" y="-121.3" font-family="Times,serif" font-size="14.00">native_temperature</text>
<text text-anchor="start" x="793.5" y="-106.3" font-family="Times,serif" font-size="14.00">native_visibility</text>
<text text-anchor="start" x="793.5" y="-91.3" font-family="Times,serif" font-size="14.00">native_wind_gust_speed</text>
<text text-anchor="start" x="793.5" y="-76.3" font-family="Times,serif" font-size="14.00">native_wind_speed</text>
<text text-anchor="start" x="793.5" y="-61.3" font-family="Times,serif" font-size="14.00">observation_coordinator</text>
<text text-anchor="start" x="793.5" y="-46.3" font-family="Times,serif" font-size="14.00">uv_index</text>
<text text-anchor="start" x="793.5" y="-31.3" font-family="Times,serif" font-size="14.00">wind_bearing</text>
<polyline fill="none" stroke="black" points="785.5,-23.5 1014.5,-23.5 "/>
<text text-anchor="start" x="897.5" y="-8.3" font-family="Times,serif" font-size="14.00"> </text>
</g>
<!-- homeassistant.components.accuweather.config_flow.AccuWeatherFlowHandler -->
<g id="node4" class="node">
<title>homeassistant.components.accuweather.config_flow.AccuWeatherFlowHandler</title>
<polygon fill="none" stroke="black" points="1033,-98 1033,-167 1539,-167 1539,-98 1033,-98"/>
<text text-anchor="start" x="1192.5" y="-151.8" font-family="Times,serif" font-size="14.00">AccuWeatherFlowHandler</text>
<polyline fill="none" stroke="black" points="1033,-144 1539,-144 "/>
<text text-anchor="start" x="1234.5" y="-128.8" font-family="Times,serif" font-size="14.00">VERSION : int</text>
<polyline fill="none" stroke="black" points="1033,-121 1539,-121 "/>
<text text-anchor="start" x="1041" y="-105.8" font-family="Times,serif" font-size="14.00">async_step_user(user_input: dict[str, Any] | None): ConfigFlowResult</text>
</g>
<!-- homeassistant.components.accuweather.sensor.AccuWeatherForecastSensor -->
<g id="node5" class="node">
<title>homeassistant.components.accuweather.sensor.AccuWeatherForecastSensor</title>
<polygon fill="none" stroke="black" points="1548.5,-316.5 1548.5,-430.5 1769.5,-430.5 1769.5,-316.5 1548.5,-316.5"/>
<text text-anchor="start" x="1556.5" y="-415.3" font-family="Times,serif" font-size="14.00">AccuWeatherForecastSensor</text>
<polyline fill="none" stroke="black" points="1548.5,-407.5 1769.5,-407.5 "/>
<text text-anchor="start" x="1579.5" y="-392.3" font-family="Times,serif" font-size="14.00">entity_description</text>
<text text-anchor="start" x="1579.5" y="-377.3" font-family="Times,serif" font-size="14.00">extra_state_attributes</text>
<text text-anchor="start" x="1579.5" y="-362.3" font-family="Times,serif" font-size="14.00">forecast_day : int</text>
<text text-anchor="start" x="1579.5" y="-347.3" font-family="Times,serif" font-size="14.00">native_value</text>
<polyline fill="none" stroke="black" points="1548.5,-339.5 1769.5,-339.5 "/>
<text text-anchor="start" x="1656.5" y="-324.3" font-family="Times,serif" font-size="14.00"> </text>
</g>
<!-- homeassistant.components.accuweather.coordinator.AccuWeatherObservationDataUpdateCoordinator -->
<g id="node6" class="node">
<title>homeassistant.components.accuweather.coordinator.AccuWeatherObservationDataUpdateCoordinator</title>
<polygon fill="none" stroke="black" points="398.5,-83 398.5,-182 767.5,-182 767.5,-83 398.5,-83"/>
<text text-anchor="start" x="406.5" y="-166.8" font-family="Times,serif" font-size="14.00">AccuWeatherObservationDataUpdateCoordinator</text>
<polyline fill="none" stroke="black" points="398.5,-159 767.5,-159 "/>
<text text-anchor="start" x="498.5" y="-143.8" font-family="Times,serif" font-size="14.00">accuweather</text>
<text text-anchor="start" x="498.5" y="-128.8" font-family="Times,serif" font-size="14.00">device_info : DeviceInfo</text>
<text text-anchor="start" x="498.5" y="-113.8" font-family="Times,serif" font-size="14.00">location_key</text>
<polyline fill="none" stroke="black" points="398.5,-106 767.5,-106 "/>
<text text-anchor="start" x="580.5" y="-90.8" font-family="Times,serif" font-size="14.00"> </text>
</g>
<!-- homeassistant.components.accuweather.coordinator.AccuWeatherObservationDataUpdateCoordinator&#45;&gt;homeassistant.components.accuweather.coordinator.AccuWeatherData -->
<g id="edge2" class="edge">
<title>homeassistant.components.accuweather.coordinator.AccuWeatherObservationDataUpdateCoordinator&#45;&gt;homeassistant.components.accuweather.coordinator.AccuWeatherData</title>
<path fill="none" stroke="black" d="M543.1,-182.15C509.66,-222.93 462.1,-280.92 428.29,-322.16"/>
<polygon fill="black" stroke="black" points="428.26,-322.19 427.54,-329.37 420.65,-331.47 421.36,-324.3 428.26,-322.19"/>
<text text-anchor="middle" x="543" y="-286.8" font-family="Times,serif" font-size="14.00" fill="green">coordinator_observation</text>
</g>
<!-- homeassistant.components.accuweather.sensor.AccuWeatherSensor -->
<g id="node7" class="node">
<title>homeassistant.components.accuweather.sensor.AccuWeatherSensor</title>
<polygon fill="none" stroke="black" points="1787.5,-324 1787.5,-423 1962.5,-423 1962.5,-324 1787.5,-324"/>
<text text-anchor="start" x="1803" y="-407.8" font-family="Times,serif" font-size="14.00">AccuWeatherSensor</text>
<polyline fill="none" stroke="black" points="1787.5,-400 1962.5,-400 "/>
<text text-anchor="start" x="1795.5" y="-384.8" font-family="Times,serif" font-size="14.00">entity_description</text>
<text text-anchor="start" x="1795.5" y="-369.8" font-family="Times,serif" font-size="14.00">extra_state_attributes</text>
<text text-anchor="start" x="1795.5" y="-354.8" font-family="Times,serif" font-size="14.00">native_value</text>
<polyline fill="none" stroke="black" points="1787.5,-347 1962.5,-347 "/>
<text text-anchor="start" x="1872.5" y="-331.8" font-family="Times,serif" font-size="14.00"> </text>
</g>
<!-- homeassistant.components.accuweather.sensor.AccuWeatherSensorDescription -->
<g id="node8" class="node">
<title>homeassistant.components.accuweather.sensor.AccuWeatherSensorDescription</title>
<polygon fill="none" stroke="black" points="1557.5,-90.5 1557.5,-174.5 1976.5,-174.5 1976.5,-90.5 1557.5,-90.5"/>
<text text-anchor="start" x="1654" y="-159.3" font-family="Times,serif" font-size="14.00">AccuWeatherSensorDescription</text>
<polyline fill="none" stroke="black" points="1557.5,-151.5 1976.5,-151.5 "/>
<text text-anchor="start" x="1565.5" y="-136.3" font-family="Times,serif" font-size="14.00">attr_fn : Callable[[dict[str, Any]], dict[str, Any]]</text>
<text text-anchor="start" x="1565.5" y="-121.3" font-family="Times,serif" font-size="14.00">value_fn : Callable[[dict[str, Any]], str | int | float | None]</text>
<polyline fill="none" stroke="black" points="1557.5,-113.5 1976.5,-113.5 "/>
<text text-anchor="start" x="1764.5" y="-98.3" font-family="Times,serif" font-size="14.00"> </text>
</g>
<!-- homeassistant.components.accuweather.sensor.AccuWeatherSensorDescription&#45;&gt;homeassistant.components.accuweather.sensor.AccuWeatherForecastSensor -->
<g id="edge3" class="edge">
<title>homeassistant.components.accuweather.sensor.AccuWeatherSensorDescription&#45;&gt;homeassistant.components.accuweather.sensor.AccuWeatherForecastSensor</title>
<path fill="none" stroke="black" d="M1748.43,-174.59C1732.21,-210.48 1708.35,-263.28 1689.36,-305.32"/>
<polygon fill="black" stroke="black" points="1689.33,-305.38 1690.51,-312.49 1684.39,-316.31 1683.22,-309.2 1689.33,-305.38"/>
<text text-anchor="middle" x="1763" y="-286.8" font-family="Times,serif" font-size="14.00" fill="green">entity_description</text>
</g>
<!-- homeassistant.components.accuweather.sensor.AccuWeatherSensorDescription&#45;&gt;homeassistant.components.accuweather.sensor.AccuWeatherSensor -->
<g id="edge4" class="edge">
<title>homeassistant.components.accuweather.sensor.AccuWeatherSensorDescription&#45;&gt;homeassistant.components.accuweather.sensor.AccuWeatherSensor</title>
<path fill="none" stroke="black" d="M1785.57,-174.59C1802.73,-212.57 1828.44,-269.47 1847.9,-312.52"/>
<polygon fill="black" stroke="black" points="1848.01,-312.77 1854.13,-316.59 1852.95,-323.71 1846.84,-319.89 1848.01,-312.77"/>
<text text-anchor="middle" x="1906" y="-286.8" font-family="Times,serif" font-size="14.00" fill="green">entity_description</text>
</g>
</g>
</svg>
